<svg width="26" height="26" viewBox="0 0 26 26" fill="none" xmlns="http://www.w3.org/2000/svg">
<path fill-rule="evenodd" clip-rule="evenodd" d="M25.5689 2.51235C26.1437 1.93761 26.1437 1.00578 25.5689 0.43105C24.9942 -0.143683 24.0624 -0.143683 23.4877 0.43105L13 10.9187L2.51234 0.43105C1.93761 -0.143683 1.00578 -0.143683 0.431051 0.43105C-0.143683 1.00578 -0.143683 1.93761 0.431051 2.51235L10.9187 13L0.43105 23.4877C-0.143683 24.0624 -0.143683 24.9942 0.43105 25.5689C1.00578 26.1437 1.93761 26.1437 2.51235 25.5689L13 15.0813L23.4877 25.5689C24.0624 26.1437 24.9942 26.1437 25.5689 25.5689C26.1437 24.9942 26.1437 24.0624 25.5689 23.4877L15.0813 13L25.5689 2.51235Z" fill="black"/>
</svg>
